<?xml version="1.0" standalone="no"?>
<!DOCTYPE svg PUBLIC "-//W3C//DTD SVG 20010904//EN"
 "http://www.w3.org/TR/2001/REC-SVG-20010904/DTD/svg10.dtd">
<svg version="1.0" xmlns="http://www.w3.org/2000/svg"
 width="585.000000pt" height="584.000000pt" viewBox="0 0 585.000000 584.000000"
 preserveAspectRatio="xMidYMid meet">

<g transform="translate(0.000000,584.000000) scale(0.100000,-0.100000)"
fill="#000000" stroke="none">
<path d="M2863 5628 c-6 -7 -14 -31 -17 -53 -19 -109 -94 -207 -195 -254 -75
-35 -192 -37 -263 -4 -62 28 -134 96 -163 153 -37 73 -43 75 -122 50 -119 -39
-311 -121 -317 -135 -3 -8 -1 -39 4 -70 18 -112 -19 -215 -106 -294 -114 -104
-290 -116 -409 -27 -54 41 -60 40 -133 -23 -72 -63 -232 -224 -232 -235 0 -3
17 -39 38 -78 34 -68 37 -79 37 -158 0 -71 -4 -94 -26 -141 -71 -150 -198
-212 -381 -186 l-57 8 -21 -33 c-22 -37 -116 -256 -126 -293 -4 -17 0 -28 18
-42 70 -54 127 -123 148 -179 65 -174 -36 -383 -208 -429 -116 -31 -106 -23
-115 -100 -4 -39 -6 -115 -5 -170 l3 -99 62 -22 c83 -28 136 -64 178 -122 88
-119 85 -278 -8 -404 -11 -15 -47 -46 -79 -68 -47 -34 -58 -46 -58 -70 0 -31
69 -238 103 -309 l22 -46 95 -1 c121 -1 196 -31 266 -106 111 -119 122 -273
28 -415 -19 -29 -34 -59 -34 -66 0 -25 220 -273 252 -283 13 -4 43 6 86 28 60
30 74 33 152 33 73 0 93 -4 141 -28 142 -69 213 -219 179 -378 -13 -61 -13
-62 11 -82 51 -41 345 -177 383 -177 8 0 30 21 49 48 71 96 187 151 296 138
77 -9 164 -51 210 -101 50 -54 67 -88 85 -166 8 -34 21 -66 28 -70 7 -5 106
-9 220 -9 l206 0 12 52 c21 99 93 188 189 232 65 30 197 30 263 -1 57 -26 128
-90 154 -138 10 -19 26 -37 34 -40 30 -10 348 110 383 144 16 15 16 23 6 70
-23 108 30 250 118 317 127 96 261 97 415 2 35 -22 39 -22 64 -7 48 29 264
251 264 271 0 11 -8 32 -19 46 -54 77 -72 179 -47 267 31 106 87 170 200 230
62 32 76 36 125 32 31 -3 71 -11 89 -19 32 -12 35 -12 56 13 23 27 104 202
138 299 l19 55 -33 29 c-113 98 -152 157 -164 252 -7 61 15 157 50 212 46 73
133 133 211 147 79 15 75 4 75 210 l0 185 -27 6 c-135 28 -234 112 -268 227
-42 143 10 289 135 376 33 23 60 48 60 56 0 20 -75 232 -108 307 l-30 66 -104
-1 c-98 -2 -106 0 -170 31 -118 58 -183 161 -183 292 0 81 12 121 57 187 35
52 35 73 1 115 -46 57 -197 208 -209 208 -6 0 -45 -18 -88 -40 -68 -35 -85
-40 -146 -40 -95 0 -170 29 -236 92 -90 85 -121 195 -89 320 9 37 13 73 9 79
-10 17 -308 159 -346 166 -33 5 -36 2 -77 -61 -60 -94 -135 -144 -238 -161
-50 -8 -142 9 -196 37 -93 47 -162 153 -173 269 -4 35 -11 70 -17 77 -7 9 -58
12 -192 12 -134 0 -185 -3 -192 -12z m344 -623 c400 -52 773 -210 1073 -452
101 -82 292 -279 367 -379 221 -297 356 -626 408 -996 19 -141 19 -401 -1
-553 -93 -713 -531 -1320 -1179 -1635 -277 -135 -533 -199 -864 -216 -126 -7
-317 11 -495 47 -530 107 -1037 455 -1339 920 -69 105 -174 314 -215 429 -231
631 -144 1352 229 1906 306 455 771 774 1300 893 226 51 495 64 716 36z"/>
<path d="M2760 4883 c-8 -2 -21 -6 -28 -9 -10 -3 -10 -9 -2 -24 8 -14 17 -19
30 -15 10 3 21 2 24 -3 3 -6 10 -58 15 -117 5 -59 12 -109 15 -112 3 -3 12 -3
21 1 13 5 15 15 11 48 -3 24 -7 75 -8 113 -3 68 -2 70 22 74 28 3 41 18 33 38
-5 13 -99 18 -133 6z"/>
<path d="M2947 4883 c-11 -18 -8 -271 3 -278 22 -14 28 11 35 148 6 133 6 137
-14 137 -11 0 -22 -3 -24 -7z"/>
<path d="M3027 4877 c-8 -20 5 -35 33 -38 25 -4 25 -5 22 -84 -2 -44 -5 -97
-8 -118 -6 -36 -4 -38 17 -35 23 3 24 8 31 107 8 127 11 135 43 127 21 -5 25
-3 25 17 0 22 -6 25 -52 31 -79 9 -105 7 -111 -7z"/>
<path d="M3257 4863 c-13 -20 -40 -221 -33 -246 4 -19 17 -33 41 -43 78 -32
106 -4 129 127 9 52 19 104 21 117 4 17 1 22 -14 22 -16 0 -22 -11 -31 -57 -7
-32 -16 -79 -22 -105 -11 -53 -28 -72 -57 -63 -30 9 -33 34 -16 135 9 50 14
98 11 106 -6 15 -22 19 -29 7z"/>
<path d="M2548 4843 c-25 -29 -30 -59 -14 -97 12 -29 22 -37 58 -46 64 -16 68
-18 74 -35 16 -40 -53 -62 -79 -25 -9 13 -20 18 -31 14 -23 -9 -20 -31 9 -59
35 -36 96 -35 124 1 48 62 9 144 -76 157 -45 8 -56 17 -47 40 10 26 36 29 59
7 13 -12 28 -18 38 -14 22 8 21 16 -4 48 -25 32 -87 37 -111 9z"/>
<path d="M2400 4802 c0 -10 11 -51 24 -90 14 -40 22 -72 18 -71 -4 0 -34 32
-67 70 -42 48 -66 68 -80 67 -11 -2 -20 -8 -20 -13 0 -32 82 -265 93 -265 23
0 23 24 -2 98 -13 39 -20 72 -16 72 4 0 33 -29 65 -65 56 -64 69 -72 92 -57
15 10 -74 272 -93 272 -8 0 -14 -8 -14 -18z"/>
<path d="M3487 4814 c-12 -13 -7 -44 7 -44 36 0 36 -26 1 -130 -19 -56 -32
-107 -29 -111 16 -27 35 -1 64 89 38 114 48 129 79 113 17 -10 22 -9 27 3 10
27 -1 38 -56 56 -30 10 -62 20 -71 24 -8 4 -18 3 -22 0z"/>
<path d="M2191 4741 c-10 -7 -3 -35 35 -136 46 -120 65 -149 83 -129 9 9 -77
246 -95 264 -5 5 -15 5 -23 1z"/>
<path d="M3678 4693 c-11 -27 -36 -81 -54 -122 -19 -41 -34 -78 -34 -83 0 -5
30 -22 66 -39 51 -22 70 -27 80 -18 23 19 16 29 -36 51 -51 21 -58 34 -40 69
13 23 31 24 71 3 24 -12 34 -13 45 -3 23 19 17 29 -31 50 -47 21 -54 33 -32
63 12 16 15 16 56 -3 87 -39 97 8 11 51 -30 15 -61 27 -68 27 -7 1 -22 -20
-34 -46z"/>
<path d="M1930 4606 c-9 -12 2 -39 55 -135 37 -67 69 -121 71 -121 9 0 114 63
120 71 3 6 0 17 -7 25 -10 12 -16 12 -46 -6 -19 -11 -40 -20 -48 -20 -7 0 -36
42 -64 94 -28 52 -55 97 -60 100 -5 3 -14 -1 -21 -8z"/>
<path d="M3957 4529 c-78 -64 -104 -172 -53 -216 41 -35 94 -31 139 10 75 68
100 165 52 212 -36 36 -90 34 -138 -6z m103 -29 c11 -11 20 -28 20 -38 0 -27
-49 -97 -82 -116 -27 -17 -31 -17 -55 -1 -21 14 -24 22 -20 50 7 44 34 83 72
106 38 24 41 23 65 -1z"/>
<path d="M1783 4512 c-29 -21 -52 -41 -53 -45 0 -12 153 -227 163 -227 4 0 35
18 68 40 52 36 58 43 49 60 -14 25 -13 26 -65 -10 l-44 -30 -20 22 c-29 30
-26 43 14 68 37 23 43 38 24 57 -9 9 -22 5 -54 -17 l-43 -30 -17 26 c-9 15
-13 29 -8 33 4 4 25 20 46 35 31 22 36 31 26 42 -16 20 -27 17 -86 -24z"/>
<path d="M2715 4465 c-295 -48 -582 -183 -809 -379 -189 -162 -374 -447 -455
-696 -126 -388 -94 -830 85 -1196 144 -295 439 -586 738 -728 195 -93 367
-134 598 -143 480 -18 867 127 1184 444 194 194 325 404 402 643 56 177 67
253 66 490 0 238 -14 335 -76 515 -109 322 -370 649 -663 833 -139 87 -345
165 -532 203 -142 28 -409 35 -538 14z m565 -63 c269 -64 508 -193 724 -394
141 -130 235 -256 321 -428 173 -345 207 -780 89 -1147 -13 -43 -54 -136 -89
-208 -205 -412 -547 -692 -987 -810 -118 -32 -210 -44 -378 -50 -123 -4 -148
-2 -279 26 -240 51 -421 126 -602 250 -324 222 -562 593 -635 990 -24 128 -24
389 -1 519 39 214 115 412 221 575 249 382 611 615 1075 690 125 21 428 13
541 -13z"/>
<path d="M2946 4371 c-9 -15 23 -36 36 -23 5 5 7 15 4 21 -9 13 -33 14 -40 2z"/>
<path d="M3010 4345 c-27 -28 -66 -33 -96 -10 -30 23 -40 17 -15 -9 39 -41 77
-52 117 -33 41 20 52 43 32 63 -12 13 -17 11 -38 -11z"/>
<path d="M2822 4253 c3 -14 13 -18 47 -18 54 0 66 -21 21 -36 -32 -12 -39 -43
-10 -45 8 -1 20 -2 27 -3 15 -1 25 -33 17 -55 -8 -22 -57 -21 -77 2 -9 10 -22
33 -28 50 -6 18 -15 29 -20 26 -26 -16 68 -144 106 -144 9 0 27 11 40 24 20
21 23 29 16 50 -9 21 -7 25 15 30 15 4 31 20 42 44 25 53 56 51 60 -3 4 -50
-21 -75 -50 -48 -10 9 -18 12 -18 6 0 -18 36 -43 63 -43 31 0 57 33 57 73 0
20 -11 40 -34 63 -52 52 -81 44 -120 -33 -22 -43 -48 -45 -40 -3 4 19 1 38
-10 55 -14 21 -24 25 -62 25 -38 0 -45 -3 -42 -17z"/>
<path d="M2151 3955 l-196 -194 33 -94 c99 -282 83 -499 -66 -887 -47 -123
-59 -200 -42 -290 25 -139 108 -250 230 -308 36 -17 119 -41 185 -55 251 -53
404 -132 615 -320 41 -37 80 -67 85 -67 6 0 30 25 55 56 25 31 74 84 110 117
131 120 250 185 391 212 240 46 279 60 359 132 92 83 137 221 119 365 -5 41
-26 111 -53 178 -97 235 -126 362 -126 544 0 136 24 259 75 385 21 51 36 93
34 95 -69 61 -377 319 -385 322 -6 3 -38 -11 -70 -30 -293 -173 -684 -173
-1063 0 -41 19 -79 34 -84 34 -6 0 -99 -88 -206 -195z m313 105 c368 -150 709
-155 995 -13 53 26 101 47 107 47 6 -1 86 -66 178 -144 126 -108 165 -147 160
-159 -30 -70 -75 -219 -85 -281 -17 -109 -6 -344 20 -448 12 -46 49 -154 83
-240 56 -141 62 -166 66 -244 6 -130 -30 -224 -114 -297 -55 -49 -129 -78
-255 -101 -61 -11 -129 -25 -152 -31 -123 -33 -281 -140 -399 -270 -39 -43
-75 -79 -79 -79 -3 0 -33 24 -65 53 -134 118 -279 210 -415 261 -36 13 -121
36 -190 50 -151 32 -230 68 -293 136 -61 65 -93 137 -107 236 -11 78 -11 82
21 169 128 358 150 446 150 615 0 122 -13 200 -52 328 l-32 104 175 174 c96
96 177 174 180 174 3 0 49 -18 103 -40z"/>
<path d="M2905 3836 c-9 -21 -25 -78 -35 -127 -11 -49 -24 -97 -29 -107 -5
-10 -13 -42 -17 -70 -5 -43 -4 -52 9 -52 17 0 47 26 47 41 0 5 5 9 10 9 6 0
10 -11 10 -24 0 -17 -11 -31 -35 -46 -35 -22 -55 -20 -55 6 0 8 -5 14 -11 14
-7 0 -9 -9 -5 -22 3 -13 6 -29 6 -36 0 -10 5 -10 20 -2 26 14 25 7 -4 -36 -35
-51 -61 -68 -86 -54 -20 11 -19 30 2 30 5 0 21 8 34 19 21 16 22 20 9 31 -23
19 -60 -1 -73 -39 -10 -28 -8 -32 19 -52 22 -15 38 -19 57 -14 15 3 37 8 50 9
12 1 29 11 36 22 8 10 18 16 22 12 4 -4 13 -3 21 3 16 14 17 -3 1 -19 -9 -9
-7 -16 10 -32 12 -12 23 -26 23 -33 1 -7 2 -24 3 -39 2 -31 29 -65 60 -74 11
-4 24 -12 28 -18 5 -8 10 -8 19 1 9 9 4 21 -20 52 -34 42 -45 48 -56 31 -17
-27 -22 -5 -8 35 11 33 22 47 39 51 25 7 31 19 13 29 -6 4 -16 -1 -23 -11 -12
-16 -14 -16 -31 10 -20 30 -14 46 10 26 14 -12 20 -7 16 14 -1 5 6 17 15 27
10 11 12 19 6 19 -17 0 -15 36 4 72 14 28 17 29 32 15 12 -13 13 -19 3 -31
-10 -12 -8 -17 9 -26 17 -9 26 -8 46 5 29 19 31 46 5 69 -18 17 -20 17 -29 -1
-10 -17 -11 -17 -17 0 -10 24 1 48 19 41 8 -3 24 0 36 6 20 11 21 10 10 -10
-10 -18 -9 -25 4 -38 20 -20 49 -6 54 25 7 46 -63 70 -112 38 -23 -15 -24 -14
-56 35 -18 28 -36 71 -41 95 -4 24 -19 70 -33 102 l-25 58 -16 -39z m53 -121
c18 -39 -5 -105 -35 -105 -18 0 -23 6 -23 28 0 15 -5 33 -12 40 -9 9 -7 12 10
12 12 0 22 5 22 10 0 6 -4 10 -10 10 -5 0 -10 4 -10 9 0 8 13 14 41 20 3 0 11
-10 17 -24z m30 -133 c13 11 15 10 9 -12 -4 -14 -7 -28 -7 -32 0 -5 -7 -8 -16
-8 -11 0 -14 6 -10 18 4 11 -1 8 -12 -7 -11 -13 -24 -21 -30 -18 -6 4 1 19 17
36 14 16 28 25 29 20 2 -6 11 -4 20 3z m-86 -204 c-15 -15 -26 -4 -18 18 5 13
9 15 18 6 9 -9 9 -15 0 -24z"/>
<path d="M2781 3581 c-7 -5 -10 -14 -6 -20 5 -9 10 -9 21 0 26 22 14 38 -15
20z"/>
<path d="M2784 3527 c-8 -21 2 -35 16 -21 5 5 6 15 0 24 -8 12 -10 12 -16 -3z"/>
<path d="M3034 3416 c-8 -22 -2 -27 16 -16 12 7 12 12 3 21 -10 10 -14 9 -19
-5z"/>
<path d="M3053 3383 c-17 -6 -17 -33 0 -33 7 0 18 9 25 20 13 21 4 25 -25 13z"/>
<path d="M3120 3359 c0 -5 5 -7 10 -4 6 3 10 8 10 11 0 2 -4 4 -10 4 -5 0 -10
-5 -10 -11z"/>
<path d="M3065 3287 l-20 -52 29 -55 c35 -66 34 -65 42 -57 4 4 2 13 -5 21
-10 12 -6 14 23 13 19 0 41 5 50 12 24 20 13 23 -20 6 -35 -18 -45 -3 -18 26
l19 21 -32 -19 c-21 -12 -35 -15 -42 -8 -13 13 -15 70 -6 113 11 47 3 39 -20
-21z"/>
<path d="M2834 3182 c10 -32 -17 -46 -53 -28 -35 19 -41 19 -41 6 0 -5 6 -10
14 -10 21 0 31 -21 15 -31 -8 -5 -25 -7 -37 -4 -16 4 -21 2 -17 -6 11 -16 82
-3 108 21 22 21 53 25 77 10 19 -12 9 -20 -32 -30 -33 -8 -33 -8 -5 -9 16 -1
42 7 58 16 27 16 31 16 77 0 35 -13 55 -15 73 -8 23 9 22 10 -10 10 -18 1 -48
10 -66 21 -18 11 -47 19 -69 18 -24 -1 -47 6 -67 21 -29 22 -31 22 -25 3z"/>
<path d="M3147 2950 c-14 -16 -37 -67 -52 -112 -15 -46 -29 -85 -31 -87 -3 -3
-11 4 -18 15 -15 19 -15 19 -30 -1 -9 -11 -16 -14 -16 -7 0 16 -45 15 -94 -2
-22 -8 -57 -11 -79 -8 -29 4 -38 2 -33 -6 4 -7 19 -12 34 -12 l27 -1 -35 -29
c-32 -26 -36 -27 -52 -13 -21 19 -23 44 -6 61 9 9 7 13 -8 18 -10 4 -36 23
-56 42 -46 44 -61 34 -30 -19 13 -23 21 -48 17 -59 -3 -10 -1 -21 5 -25 18
-11 11 -120 -11 -179 -25 -65 -19 -93 27 -122 23 -15 34 -16 88 -7 34 6 81 20
105 31 74 36 75 28 21 -143 -39 -121 -52 -189 -30 -155 8 12 15 9 43 -18 l34
-33 13 60 c7 33 16 58 20 56 4 -3 1 -35 -6 -72 -8 -37 -13 -74 -11 -83 2 -8 9
12 16 45 7 33 16 71 21 85 l8 25 1 -25 c0 -14 -6 -53 -13 -88 -8 -34 -10 -64
-6 -67 4 -3 39 19 76 48 81 62 73 35 98 367 25 331 30 518 16 535 -17 21 -25
19 -53 -15z m50 -92 c-3 -8 -6 -5 -6 6 -1 11 2 17 5 13 3 -3 4 -12 1 -19z
m-87 -108 c0 -5 -5 -10 -11 -10 -5 0 -7 5 -4 10 3 6 8 10 11 10 2 0 4 -4 4
-10z m-360 -73 c13 -23 13 -28 -5 -47 -23 -26 -35 -12 -35 43 0 44 16 46 40 4z
m347 1 c-3 -8 -6 -5 -6 6 -1 11 2 17 5 13 3 -3 4 -12 1 -19z m-113 -15 c-5
-18 -93 -123 -94 -112 0 3 10 17 21 30 12 13 32 41 45 62 26 41 35 46 28 20z
m103 -40 c-3 -10 -5 -4 -5 12 0 17 2 24 5 18 2 -7 2 -21 0 -30z m34 -14 c-9
-22 -10 -22 -10 -3 -1 11 2 24 6 27 12 12 14 0 4 -24z m-153 -29 c-12 -17 -33
-38 -47 -46 -16 -10 -9 1 19 30 51 53 60 58 28 16z m76 -51 c-3 -6 0 -15 7
-20 11 -7 10 -9 -3 -9 -18 0 -24 20 -11 33 10 11 15 8 7 -4z m-290 -84 c-25
-19 -40 -19 -24 0 7 8 20 15 28 15 13 0 12 -3 -4 -15z m266 -8 c0 -2 -10 -12
-22 -23 l-23 -19 19 23 c18 21 26 27 26 19z m90 -37 c-8 -5 -17 -7 -19 -4 -3
3 1 9 9 14 8 5 17 7 19 4 3 -3 -1 -9 -9 -14z m-52 -2 c15 -15 16 -55 2 -63 -7
-4 -9 2 -4 19 4 16 2 26 -5 26 -6 0 -11 -11 -11 -24 0 -14 -5 -28 -12 -32 -8
-5 -9 2 -5 26 4 18 7 39 7 46 0 17 12 18 28 2z m-50 -28 c-7 -10 -14 -17 -17
-15 -4 4 18 35 25 35 2 0 -1 -9 -8 -20z m-11 -52 c-3 -8 -6 -5 -6 6 -1 11 2
17 5 13 3 -3 4 -12 1 -19z m-28 -53 c0 -5 -4 -3 -9 5 -5 8 -9 22 -9 30 0 16
17 -16 18 -35z m51 13 c-1 -28 -2 -30 -11 -15 -6 10 -8 25 -5 33 9 24 16 16
16 -18z m25 -38 c-4 -12 -9 -19 -12 -17 -3 3 -2 15 2 27 4 12 9 19 12 17 3 -3
2 -15 -2 -27z"/>
<path d="M2466 2917 c-20 -20 -24 -37 -30 -130 -4 -59 -9 -114 -12 -122 -10
-24 17 -17 61 16 l40 30 5 102 c3 56 1 108 -4 115 -13 18 -34 15 -60 -11z"/>
<path d="M2217 2907 c-12 -31 -20 -177 -9 -177 6 0 12 5 14 11 3 9 10 9 26 0
13 -7 49 -13 80 -14 49 -2 57 0 54 16 -2 9 3 17 10 17 9 0 9 3 0 12 -22 22
-12 88 14 88 23 0 16 30 -9 39 -12 5 -57 12 -98 16 -63 6 -77 4 -82 -8z"/>
<path d="M3525 2913 c-81 -7 -146 -33 -166 -68 -11 -17 -30 -37 -44 -43 -30
-14 -32 -33 -5 -57 20 -18 23 -17 150 70 120 82 149 108 118 103 -7 -1 -31 -3
-53 -5z"/>
<path d="M3707 2859 c-24 -14 -49 -66 -42 -88 4 -13 -6 -26 -36 -47 l-41 -28
-22 25 c-11 14 -33 40 -47 59 l-26 34 -36 -23 -37 -23 46 -59 46 -60 -24 -19
c-15 -13 -39 -19 -71 -20 -27 0 -57 -5 -69 -11 -25 -14 -49 -69 -41 -98 6 -22
7 -22 40 14 39 43 73 44 87 4 7 -21 4 -33 -13 -58 -25 -34 -21 -52 9 -44 26 7
70 59 70 83 0 32 11 50 40 65 l28 14 73 -94 c41 -52 81 -95 89 -95 18 0 60 27
60 40 0 4 -34 51 -75 104 -41 53 -75 98 -75 101 0 3 15 18 33 35 28 25 37 28
74 23 37 -5 45 -2 72 25 29 28 40 69 25 85 -4 4 -22 -7 -41 -23 -41 -37 -60
-38 -75 -5 -10 22 -8 30 10 55 12 16 22 32 22 35 0 9 -34 5 -53 -6z"/>
<path d="M2505 2669 c-22 -21 -48 -39 -58 -39 -9 0 -79 14 -154 30 -75 17
-144 29 -152 28 -9 -2 52 -18 134 -37 83 -18 156 -38 163 -43 12 -10 11 -34
-4 -108 -5 -22 1 -19 46 25 28 28 58 62 66 77 15 29 19 94 7 101 -5 3 -26 -13
-48 -34z"/>
<path d="M2140 2656 c0 -8 5 -18 10 -21 6 -3 10 3 10 14 0 12 -4 21 -10 21 -5
0 -10 -6 -10 -14z"/>
<path d="M2241 2616 c-14 -36 -2 -52 47 -62 27 -6 31 -4 26 10 -7 19 7 21 24
4 6 -6 14 -9 18 -6 3 4 -6 14 -20 23 -14 10 -26 24 -26 31 0 8 -9 14 -21 14
-11 0 -17 -4 -14 -10 3 -5 2 -10 -4 -10 -5 0 -11 8 -14 18 -3 13 -7 10 -16
-12z"/>
<path d="M2090 2597 c0 -7 7 -22 15 -33 14 -18 14 -17 15 14 0 22 -5 32 -15
32 -8 0 -15 -6 -15 -13z"/>
<path d="M2140 2597 c0 -19 60 -41 74 -27 14 14 -2 28 -42 36 -25 5 -32 3 -32
-9z"/>
<path d="M2388 2549 c13 -5 20 -13 17 -19 -3 -5 -2 -10 4 -10 5 0 13 5 17 11
8 14 -14 29 -41 28 -18 0 -18 -1 3 -10z"/>
<path d="M2348 2538 c6 -6 18 -8 28 -6 14 3 12 5 -9 10 -19 3 -25 2 -19 -4z"/>
<path d="M2107 2505 c-31 -39 -28 -55 9 -55 14 0 59 -11 100 -25 84 -28 105
-30 122 -13 24 24 10 34 -93 62 -93 25 -105 30 -100 47 10 30 -7 22 -38 -16z"/>
<path d="M2371 2419 c-17 -28 -30 -53 -28 -56 6 -5 77 83 77 96 0 24 -19 8
-49 -40z"/>
<path d="M2387 1693 c-4 -3 -7 -41 -7 -84 0 -87 5 -93 71 -83 49 8 51 24 3 24
-33 0 -35 2 -32 28 2 22 7 26 26 24 15 -2 22 2 22 12 0 10 -9 16 -23 16 -29 0
-37 7 -30 26 3 8 18 14 34 14 19 0 29 5 29 15 0 11 -11 15 -43 15 -24 0 -47
-3 -50 -7z"/>
<path d="M2789 1693 c-1 -4 -1 -16 0 -25 2 -14 -5 -18 -28 -18 -34 0 -51 -22
-51 -67 0 -49 14 -58 83 -55 l28 2 -3 82 c-2 54 -7 83 -15 86 -7 2 -14 0 -14
-5z m-4 -92 c7 -24 -4 -51 -21 -51 -9 0 -14 12 -14 35 0 38 24 50 35 16z"/>
<path d="M3024 1679 c-16 -17 -16 -22 -4 -29 10 -7 19 -5 26 5 14 19 44 19 44
1 0 -8 -18 -36 -40 -61 -22 -25 -40 -50 -40 -55 0 -16 77 -22 102 -8 22 13 22
13 -14 16 -21 2 -38 7 -38 11 0 4 14 20 30 36 32 30 40 71 18 93 -19 19 -63
14 -84 -9z"/>
<path d="M3166 1678 c-23 -33 -21 -113 4 -138 45 -45 90 -8 90 73 0 40 -5 58
-18 70 -26 23 -58 21 -76 -5z m58 -24 c10 -26 7 -92 -4 -99 -28 -17 -40 23
-31 103 2 17 28 15 35 -4z"/>
<path d="M3307 1682 c-25 -28 -23 -116 3 -142 43 -43 90 -8 90 68 0 27 -7 57
-16 70 -18 27 -55 29 -77 4z m56 -39 c8 -48 6 -71 -8 -83 -8 -7 -19 -9 -25 -5
-11 7 -14 73 -4 99 10 25 32 18 37 -11z"/>
<path d="M3447 1682 c-12 -13 -17 -37 -17 -75 0 -50 3 -59 25 -73 37 -24 72
-6 81 41 7 40 -1 91 -17 112 -16 19 -53 16 -72 -5z m57 -46 c9 -47 -2 -88 -23
-84 -11 2 -17 16 -19 47 -4 51 2 71 22 71 8 0 16 -14 20 -34z"/>
<path d="M2654 1682 c-19 -12 -24 -42 -18 -98 5 -40 11 -55 25 -59 31 -10 39
3 21 34 -15 26 -15 30 1 54 11 17 13 28 6 33 -6 3 -13 14 -17 25 -4 10 -12 15
-18 11z"/>
<path d="M2521 1636 c-16 -19 0 -52 29 -61 32 -10 24 -27 -10 -20 -34 8 -41
-8 -11 -25 26 -13 43 -13 65 3 24 17 14 50 -19 65 -34 15 -32 34 1 26 20 -5
25 -3 22 7 -6 20 -62 23 -77 5z"/>
<path d="M2872 1546 c1 -10 8 -17 13 -17 15 1 12 24 -3 29 -9 3 -13 -2 -10
-12z"/>
<path d="M4116 4334 c-80 -94 -87 -107 -74 -121 14 -13 19 -11 48 26 38 47 47
49 84 20 26 -20 29 -21 44 -5 16 16 15 19 -17 46 -34 29 -34 30 -16 50 23 26
29 25 69 -5 39 -30 42 -30 55 -6 9 15 2 25 -41 60 -28 22 -54 41 -57 41 -4 0
-47 -48 -95 -106z"/>
<path d="M1588 4350 c-27 -27 -30 -36 -25 -71 16 -123 169 -210 234 -134 20
23 24 36 20 68 -7 51 -51 113 -102 143 -56 33 -90 31 -127 -6z m138 -64 c62
-61 59 -126 -4 -126 -36 0 -112 79 -112 117 0 67 54 71 116 9z"/>
<path d="M4400 4225 c-11 -13 -10 -19 4 -33 9 -10 16 -23 16 -28 0 -5 -38 -42
-85 -83 -47 -40 -84 -78 -82 -85 9 -26 36 -12 111 54 80 71 102 82 112 55 8
-19 28 -19 43 -2 8 11 0 27 -40 73 -60 69 -62 70 -79 49z"/>
<path d="M1415 4165 c-64 -63 4 -194 115 -222 50 -13 76 -6 105 28 36 44 33
83 -10 126 -39 39 -59 40 -88 0 -16 -21 -18 -30 -9 -39 9 -9 17 -9 36 1 29 16
46 8 46 -23 0 -28 -29 -56 -57 -56 -27 0 -101 55 -115 85 -17 39 3 75 42 75
34 0 52 26 29 41 -26 17 -69 9 -94 -16z"/>
<path d="M4450 3979 c-58 -38 -106 -74 -108 -79 -5 -14 69 -130 82 -130 7 0
17 5 23 11 9 9 5 23 -18 55 -16 23 -29 46 -29 51 0 5 14 17 31 27 34 20 31 22
66 -36 10 -16 23 -28 30 -28 24 0 25 24 2 67 -24 44 -24 45 -5 59 28 20 33 18
62 -26 27 -41 50 -51 60 -26 6 17 -64 126 -80 125 -6 0 -58 -32 -116 -70z"/>
<path d="M1244 3902 c-17 -11 -73 -105 -68 -114 9 -13 225 -138 240 -138 31 0
12 36 -31 60 -68 37 -57 55 33 55 54 0 75 4 82 15 17 27 11 30 -55 30 -64 0
-65 0 -79 34 -22 53 -84 83 -122 58z m75 -56 c10 -11 9 -21 -4 -45 -18 -35
-34 -39 -65 -13 l-21 17 21 28 c24 30 51 35 69 13z"/>
<path d="M4575 3816 c-16 -7 -47 -30 -67 -52 -49 -49 -53 -101 -11 -134 36
-28 98 -25 98 5 0 15 -8 21 -32 23 -21 2 -37 11 -44 25 -11 19 -7 25 31 59 41
37 95 56 125 44 22 -8 30 -36 16 -58 -9 -15 -9 -23 0 -34 17 -21 27 -17 44 16
20 39 19 62 -6 94 -17 22 -28 26 -72 26 -29 -1 -65 -7 -82 -14z"/>
<path d="M1107 3643 c-21 -21 1 -49 101 -128 59 -46 111 -85 115 -85 4 0 10 7
14 17 4 11 -3 23 -21 38 l-27 22 17 36 c16 33 22 37 56 37 31 0 38 3 38 20 0
11 -4 20 -9 20 -19 0 -217 20 -247 25 -17 3 -33 2 -37 -2z m132 -49 c26 -6 30
-10 25 -28 -10 -31 -10 -31 -49 -5 -53 36 -45 47 24 33z"/>
<path d="M4665 3589 c-119 -43 -131 -50 -122 -73 6 -14 12 -14 58 4 58 21 66
20 80 -17 12 -32 0 -48 -49 -64 -46 -14 -56 -23 -49 -43 5 -13 25 -9 134 30
137 48 154 57 136 75 -8 8 -24 7 -59 -5 -54 -18 -65 -13 -67 34 -2 29 2 33 43
49 46 17 61 45 25 47 -11 1 -69 -16 -130 -37z"/>
<path d="M1040 3450 c-18 -33 -8 -44 74 -81 42 -19 76 -37 76 -40 0 -3 -40 -3
-90 -1 l-89 4 -7 -26 c-3 -15 -4 -29 -1 -32 3 -3 65 -21 137 -39 111 -28 132
-31 137 -18 8 21 -4 28 -72 43 -99 21 -99 31 0 28 79 -3 90 -1 93 15 3 13 -15
26 -73 53 -41 20 -74 38 -72 40 2 2 36 -3 76 -12 54 -12 75 -14 84 -5 18 18 0
26 -118 55 -60 15 -118 29 -127 32 -10 3 -21 -3 -28 -16z"/>
<path d="M4736 3366 c-72 -18 -131 -37 -133 -43 -8 -22 19 -24 93 -8 41 10 77
15 79 13 2 -2 -27 -28 -66 -57 -125 -93 -109 -111 66 -70 134 31 157 41 138
60 -8 8 -32 6 -87 -8 -42 -11 -76 -16 -76 -12 0 4 32 32 71 64 47 38 68 62 65
72 -3 8 -6 17 -6 19 0 6 2 6 -144 -30z"/>
<path d="M985 3180 c-13 -20 7 -28 100 -41 85 -11 135 -29 135 -48 0 -5 -8
-18 -17 -30 -18 -22 -19 -22 -123 -7 -108 15 -120 14 -120 -9 0 -16 11 -19
128 -35 129 -17 171 1 174 75 2 62 -29 77 -218 101 -35 4 -54 3 -59 -6z"/>
<path d="M4723 3135 c-51 -22 -73 -50 -73 -94 0 -49 36 -87 90 -96 105 -18
200 32 200 105 0 22 -7 46 -17 58 -36 40 -138 54 -200 27z m153 -46 c7 -5 14
-19 17 -29 13 -51 -78 -91 -150 -67 -32 10 -38 17 -41 43 -3 35 13 53 61 65
36 8 96 2 113 -12z"/>
<path d="M1154 2918 l-80 -41 -53 38 c-28 21 -54 35 -58 32 -16 -16 11 -58 57
-87 27 -18 50 -36 50 -41 0 -4 -24 -9 -52 -11 -41 -2 -54 -7 -56 -21 -3 -16 7
-17 140 -15 135 3 143 4 143 23 0 15 -7 20 -30 21 -51 1 -60 3 -81 18 -18 14
-15 17 49 45 57 26 67 35 67 56 0 14 -3 25 -7 24 -5 0 -44 -19 -89 -41z"/>
<path d="M4673 2882 c-6 -4 -13 -36 -14 -72 -3 -60 -1 -65 19 -68 19 -3 21 2
24 50 l3 53 115 2 c109 1 115 2 118 22 3 20 0 21 -125 21 -70 0 -133 -4 -140
-8z"/>
<path d="M4703 2693 c-31 -6 -73 -59 -73 -92 0 -36 24 -67 70 -91 70 -36 196
-21 214 25 9 25 7 74 -4 96 -22 40 -141 76 -207 62z m154 -76 c23 -23 25 -29
15 -51 -14 -31 -47 -40 -106 -32 -73 11 -108 63 -69 101 27 28 126 16 160 -18z"/>
<path d="M1083 2611 c-72 -12 -93 -19 -93 -32 0 -8 2 -18 5 -21 3 -3 53 4 112
14 93 17 108 18 121 5 13 -13 11 -17 -12 -32 -21 -14 -24 -21 -15 -36 9 -18
12 -18 39 -4 29 15 50 42 50 65 0 6 -11 22 -25 35 -28 29 -48 30 -182 6z"/>
<path d="M1167 2425 c-65 -40 -121 -76 -124 -78 -2 -3 0 -15 7 -26 10 -20 19
-21 150 -21 77 0 140 -3 140 -6 0 -4 -17 -29 -37 -56 -27 -34 -42 -46 -53 -41
-46 21 -122 -12 -128 -56 -4 -23 37 -131 49 -131 9 0 250 108 257 115 3 2 0
11 -7 19 -10 12 -19 11 -61 -7 -38 -16 -53 -18 -62 -9 -8 8 -1 25 31 67 l42
55 -15 43 c-12 36 -18 42 -44 45 -33 3 -46 15 -56 49 -6 18 0 29 24 51 20 19
29 34 24 45 -3 9 -9 17 -13 16 -3 0 -59 -33 -124 -74z m47 -51 c11 -29 6 -34
-39 -34 -52 0 -56 8 -17 32 35 21 48 22 56 2z m32 -246 c15 -30 15 -32 -2 -45
-27 -20 -57 -12 -68 18 -21 62 40 86 70 27z"/>
<path d="M4611 2434 c-45 -41 -52 -94 -18 -127 13 -14 42 -30 63 -36 44 -12
57 -4 68 41 5 21 2 30 -14 38 -17 9 -22 7 -30 -15 -8 -22 -13 -24 -29 -15 -34
18 -37 51 -7 77 15 13 34 23 43 23 34 0 93 -24 114 -46 28 -30 20 -71 -16 -80
-16 -4 -25 -13 -25 -25 0 -26 53 -26 80 1 73 73 0 177 -133 187 -60 5 -66 4
-96 -23z"/>
<path d="M4511 2197 c-18 -18 -13 -24 42 -50 37 -17 71 -45 112 -91 32 -36 62
-66 67 -66 20 0 5 45 -28 85 l-36 44 64 3 c50 2 63 6 66 21 3 15 -6 17 -88 17
-76 0 -98 4 -139 24 -36 19 -51 22 -60 13z"/>
<path d="M1652 1597 c-48 -51 -12 -127 60 -127 45 0 72 29 72 77 0 67 -86 100
-132 50z"/>
<path d="M4159 1601 c-29 -23 -31 -81 -4 -111 26 -29 85 -27 113 3 66 70 -33
169 -109 108z"/>
<path d="M2041 1412 c-45 -23 -74 -75 -67 -125 5 -45 28 -74 73 -93 55 -24 80
-18 107 24 l24 37 -27 22 c-14 12 -34 24 -44 27 -28 7 -32 -22 -6 -43 21 -17
22 -20 7 -26 -29 -11 -60 -1 -80 26 -18 24 -18 29 -5 62 21 49 60 74 93 58 14
-6 31 -25 37 -41 19 -50 58 -52 49 -3 -6 36 -29 62 -69 79 -42 18 -51 18 -92
-4z"/>
<path d="M3764 1374 c-77 -40 -77 -41 -39 -104 19 -30 42 -71 52 -90 10 -20
27 -36 39 -38 30 -4 111 62 119 97 9 43 -25 115 -67 141 -42 25 -45 25 -104
-6z m100 -55 c40 -48 33 -92 -21 -123 -9 -5 -27 15 -53 56 l-40 63 21 18 c32
26 64 21 93 -14z"/>
<path d="M2232 1234 c-46 -105 -49 -119 -27 -127 9 -4 22 8 37 35 13 23 28 43
33 45 6 1 25 -6 43 -17 l32 -20 -21 -41 c-17 -34 -18 -43 -7 -50 7 -5 17 -9
21 -9 10 0 87 167 90 194 4 37 -31 31 -50 -8 -19 -40 -20 -40 -60 -25 -39 14
-44 27 -25 66 14 30 14 35 2 43 -8 6 -18 10 -21 10 -3 0 -24 -43 -47 -96z"/>
<path d="M3553 1273 c-16 -6 -18 -238 -3 -248 16 -10 40 14 40 40 0 28 17 43
60 51 25 5 35 3 42 -9 10 -19 26 -21 48 -7 12 8 -1 26 -70 95 -82 83 -91 89
-117 78z m62 -83 c21 -23 13 -50 -15 -50 -16 0 -20 6 -20 35 0 40 9 44 35 15z"/>
<path d="M2480 1128 c-78 -110 -76 -104 -51 -111 12 -3 27 4 41 18 20 22 25
22 63 11 35 -10 43 -17 47 -41 4 -21 12 -31 28 -33 12 -2 22 -2 22 0 0 22 -31
232 -35 239 -4 5 -16 9 -28 9 -16 -1 -40 -25 -87 -92z m88 -8 c2 -34 -1 -40
-18 -40 -29 0 -35 25 -13 54 25 35 29 32 31 -14z"/>
<path d="M3293 1197 c-24 -5 -43 -14 -43 -20 0 -17 52 -202 59 -209 3 -4 37 2
73 13 96 28 123 72 72 119 -18 18 -23 31 -19 47 3 13 1 32 -5 43 -12 23 -63
25 -137 7z m97 -62 c-9 -8 -29 -17 -46 -21 -26 -5 -32 -2 -37 15 -3 11 0 24 7
30 19 15 60 18 76 4 12 -11 12 -15 0 -28z m28 -57 c20 -20 13 -38 -22 -55 -44
-21 -68 -12 -64 24 2 22 10 29 33 34 17 4 32 7 36 8 3 0 10 -4 17 -11z"/>
<path d="M2713 1173 c-8 -19 -1 -24 46 -30 l41 -6 -65 -72 c-36 -40 -65 -80
-65 -89 0 -19 24 -25 115 -29 56 -2 70 1 70 13 0 8 -7 16 -15 17 -8 1 -37 5
-64 8 l-50 7 77 73 c42 40 77 78 77 84 0 16 -13 20 -93 29 -55 7 -70 6 -74 -5z"/>
<path d="M2927 1164 c-4 -4 -7 -59 -7 -121 0 -104 2 -114 18 -111 15 3 17 17
17 117 0 107 -7 136 -28 115z"/>
<path d="M3080 1148 c-5 -13 -19 -60 -30 -105 -11 -45 -23 -89 -26 -97 -4 -12
0 -16 15 -16 15 0 25 9 32 29 9 25 17 30 52 33 35 4 45 1 62 -20 19 -22 56
-28 56 -9 0 4 -24 52 -53 107 -43 81 -57 100 -76 100 -14 0 -26 -8 -32 -22z
m65 -109 c-7 -11 -42 -12 -48 -1 -2 4 0 22 5 41 l9 34 20 -32 c11 -18 17 -36
14 -42z"/>
</g>
</svg>
